<?xml version="1.0" encoding="utf-8"?>
<!-- Generator: Adobe Illustrator 19.0.0, SVG Export Plug-In . SVG Version: 6.00 Build 0)  -->
<svg version="1.1" id="oiSwap" xmlns="http://www.w3.org/2000/svg" xmlns:xlink="http://www.w3.org/1999/xlink" x="0px" y="0px"
	 viewBox="-49 -50 300 300" style="enable-background:new -49 -50 300 300;" xml:space="preserve">
<style type="text/css">
	.st0{fill:#131222;}
	.st1{fill:#FFFFFF;}
</style>
<circle id="Circle" class="st0" cx="101" cy="100" r="150"/>
<g id="Logo_4_">
	<g id="_x31_">
		<polygon class="st1" points="126.5,51.5 116.5,51.5 116.5,148.5 126.5,148.5 		"/>
	</g>
	<g id="_x30_">
		<path class="st1" d="M96.1,61.5v77.1H19V61.5H96.1 M106.1,51.5H9v97.1h97.1V51.5L106.1,51.5z"/>
	</g>
</g>
<g id="Text">
	<path id="P" class="st1" d="M158.6,116.9c-1-0.2-1.9-0.4-2.9-0.6c-5.6-1-11.2-2-16.8-2.9c-1.6-0.3-2.2-0.7-2.2-2c0,0,0-0.8,0-1.3
		c0-1.4,0.5-1.9,2.3-2.2c5.7-1,11.5-2.1,17.2-3.1c0.7-0.1,1.5-0.3,2.2-0.9c-0.5-0.1-0.9-0.3-1.4-0.4c-5.9-0.7-11.8-1.5-17.7-2.2
		c-1.9-0.2-2.7-0.7-2.7-2.2c0.2-3.6-0.6-3.8,4.9-3l30.9,4.5c1.8,0.2,2.4,0.8,2.4,2.1c-0.2,4,0.7,3.3-4.6,4.3
		c-5.5,1-10.9,1.9-16.4,2.9c-0.7,0.1-1.3,0.3-1.9,0.8c1,0.2,2,0.5,3,0.7c5.8,1,11.6,2,17.5,3c1.9,0.3,2.7,0.9,2.6,2.4
		c-0.2,3.4,0.9,3-4.4,3.9c-10.3,1.7-20.6,3.5-30.9,5.2c-2.5,0.4-3.2,0.2-3.1-1.6c0-3.7-0.3-3.2,4.7-4c5.3-0.9,10.5-1.7,15.8-2.6
		c0.6-0.1,1.1-0.3,1.7-0.5C158.6,117.2,158.6,117,158.6,116.9z"/>
	<path id="A" class="st1" d="M136.6,85.2c0.1-4.5-0.8-3.7,5.2-4.8c10.2-1.9,20.4-3.8,30.5-5.7c1.9-0.4,2.6,0,2.5,1.4
		c-0.1,4.9,0.8,3.8-5.1,5c-3.1,0.6-3.2,0.6-3.2,2.9c0,0.4,0,0.8,0,1.3c0.1,3.9-0.7,3.2,4.6,4.1c3.7,0.6,3.7,0.5,3.7,3.2
		c0,3.2,0,3.2-4.3,2.5c-10.5-1.8-21-3.7-31.5-5.4c-1.8-0.3-2.6-1-2.4-2.3C136.6,86.6,136.6,85.9,136.6,85.2z M145.4,85.1
		c0,0.2,0,0.3,0,0.5c3.4,0.5,6.9,1,10.3,1.5c4.6,0.6,4.9,0.4,4.4-3c-0.2-1-0.8-1.3-2-1.1c-1.5,0.2-3.1,0.5-4.6,0.7
		C150.8,84.2,148.2,84.6,145.4,85.1z"/>
	<path id="W" class="st1" d="M139.5,70.9c-2,0-2.9-0.4-2.8-2c0.2-2.7,0-5.4,0.1-8.1c0.1-5.9,5.6-9.4,13.5-8.7c4.8,0.4,8.7,3.9,9,8
		c0.1,1.1,0.1,2.2,0,3.3s0.6,1.5,2.1,1.5c3.7,0,7.4,0,11,0c1.9,0,2.6,0.5,2.5,1.8c-0.1,4.6,0.8,4.1-5.5,4.1 M151.6,65
		c0.6-0.1,1.7-0.1,1.7-0.9c0-1.4,0-3-0.5-4.3s-2.1-1.7-4-1.7c-2.1,0-4.6-0.3-5.4,1.5c-0.7,1.5-0.7,3.3-0.4,4.9
		c0.1,0.3,1.7,0.6,4.2,0.6"/>
	<path id="S" class="st1" d="M175.8,139c-0.6,5.2-3.5,8.2-9.7,9.9c-1.6,0.4-2.3,0.2-2.6-1c-0.1-0.3-0.2-0.6-0.4-0.9
		c-0.9-2.4-1-2.9,2.1-3.7c3.3-0.9,4.5-2.9,3.9-5.4c-0.5-2.4-3.6-3.4-6.3-2c-1.3,0.7-2.3,1.6-3.3,2.5c-2.1,2-4,4.2-6,6.2
		c-3.1,3.1-6.5,4.3-10.4,3.5s-5.7-3-6.6-5.7c-1.7-4.9,1.1-9.5,7-11.6c1.6-0.6,2.6-0.5,3,0.9l0.6,1.8c0.4,0.9-0.1,1.4-1.1,1.9
		c-1.3,0.6-2.6,1.3-3.6,2.2c-1.4,1.2-1.3,2.6,0,3.9c1.5,1.5,3.8,1.8,5.5,0.4c1.9-1.6,3.5-3.4,5.2-5c2.1-1.9,3.9-4.1,6.4-5.7
		c4.7-3.1,11-2.3,14,1.8C174.3,134.2,175.8,135.5,175.8,139z"/>
</g>
</svg>
